<svg width="140" height="140" viewBox="0 0 140 140" fill="none" xmlns="http://www.w3.org/2000/svg">
<rect width="140" height="96" fill="#0C0062"/>
<rect y="102" width="140" height="38" fill="#36ABA5"/>
<path d="M29.4954 84H140V49H56.2501C40.4843 49 27.1313 59.2382 22.5914 73.372C21.5751 76.5361 21.6883 80.3233 24.3709 82.3128C25.7997 83.3724 27.5736 84 29.4954 84Z" fill="#FFFCFF"/>
<path d="M48 76C48 72.6863 50.6863 70 54 70H140V76H48Z" fill="#0B0061"/>
<path d="M59.7031 55.4453C59.8886 55.1671 60.2008 55 60.5352 55H93.1315C93.9302 55 94.4066 55.8901 93.9635 56.5547L89.2969 63.5547C89.1114 63.8329 88.7992 64 88.4648 64H55.8685C55.0698 64 54.5934 63.1099 55.0365 62.4453L59.7031 55.4453Z" fill="#0C0062"/>
<path d="M23.5293 70.8049H32.7594C39.4464 70.8049 45.6911 67.4629 49.4004 61.8989L52.9632 56.5547C53.4062 55.8901 52.9298 55 52.1311 55H36.4704C30.7221 58.8582 26.1819 64.351 23.5293 70.8049Z" fill="#0C0062"/>
<path d="M100.703 55.4453C100.889 55.1671 101.201 55 101.535 55H134.131C134.93 55 135.407 55.8901 134.964 56.5547L130.297 63.5547C130.111 63.8329 129.799 64 129.465 64H96.8685C96.0698 64 95.5934 63.1099 96.0365 62.4453L100.703 55.4453Z" fill="#0C0062"/>
</svg>
